<?xml version="1.0" standalone="no"?>
<!DOCTYPE svg PUBLIC "-//W3C//DTD SVG 20010904//EN"
 "http://www.w3.org/TR/2001/REC-SVG-20010904/DTD/svg10.dtd">
<svg version="1.0" xmlns="http://www.w3.org/2000/svg"
 width="800.000000pt" height="600.000000pt" viewBox="0 0 800.000000 600.000000"
 preserveAspectRatio="xMidYMid meet">

<g transform="translate(0.000000,600.000000) scale(0.100000,-0.100000)"
fill="#000000" stroke="none">
<path d="M789 4933 c-1 -4 -2 -34 -3 -66 -1 -44 2 -61 14 -67 8 -4 95 -24 194
-44 187 -38 217 -49 252 -88 52 -56 49 46 52 -1723 1 -1128 -1 -1666 -8 -1701
-11 -51 -47 -97 -97 -123 -12 -6 -106 -29 -209 -51 -102 -22 -189 -42 -193
-45 -5 -2 -8 -34 -8 -70 l0 -65 921 1 c696 1 949 4 1036 14 423 49 773 182
1048 397 l64 50 86 -7 c48 -4 636 -7 1306 -7 1176 0 1221 0 1257 -18 35 -19
99 -92 99 -115 0 -6 18 -74 39 -151 22 -76 44 -158 51 -181 l11 -43 69 0 69 0
3 447 c2 247 2 535 0 641 l-3 192 -75 0 c-70 0 -74 -1 -74 -22 0 -31 -85 -349
-100 -379 -25 -46 -55 -81 -80 -93 -34 -15 -2422 -26 -2416 -10 2 6 31 51 64
102 124 189 218 423 266 662 36 181 47 308 47 529 0 317 -30 528 -107 764 -15
43 -24 80 -23 82 5 4 493 8 904 8 940 -2 1194 -3 1230 -8 105 -14 138 -70 185
-315 18 -91 34 -171 36 -177 2 -9 26 -13 73 -13 l70 0 7 38 c4 20 4 361 1 757
-4 396 -7 730 -7 743 0 21 -4 22 -73 22 l-73 0 -13 -67 c-7 -38 -16 -88 -21
-113 -16 -90 -48 -217 -61 -246 -10 -19 -34 -39 -74 -59 l-60 -30 -1219 0
-1219 0 -91 90 c-278 278 -692 475 -1126 535 -47 6 -98 14 -115 17 -48 9
-1905 15 -1906 6z m1806 -234 c306 -53 558 -183 772 -397 51 -51 93 -96 92
-100 0 -4 -36 -24 -79 -45 -89 -44 -277 -182 -335 -246 -108 -119 -261 -435
-295 -611 -26 -131 -30 -158 -45 -330 -13 -156 -14 -188 0 -295 22 -181 45
-316 56 -336 5 -10 27 -67 48 -126 116 -320 330 -577 613 -738 l38 -21 -53
-45 c-181 -156 -389 -246 -657 -285 -131 -19 -920 -20 -921 -1 -3 52 -3 3590
0 3593 3 2 151 4 330 3 271 -1 345 -4 436 -20z m1205 -1179 c129 -474 117
-1103 -30 -1543 -36 -108 -128 -297 -144 -297 -20 0 -134 58 -198 101 -80 53
-179 149 -227 219 -49 71 -120 207 -131 251 -5 19 -16 54 -25 78 -53 146 -60
529 -12 712 14 53 34 114 45 135 10 21 22 51 26 66 7 30 104 178 144 221 83
88 252 185 396 226 l91 27 18 -45 c10 -24 31 -93 47 -151z"/>
</g>
</svg>
